<?xml version="1.0" standalone="no"?>
<!DOCTYPE svg PUBLIC "-//W3C//DTD SVG 20010904//EN"
 "http://www.w3.org/TR/2001/REC-SVG-20010904/DTD/svg10.dtd">
<svg version="1.0" xmlns="http://www.w3.org/2000/svg"
 width="512.000000pt" height="512.000000pt" viewBox="0 0 512.000000 512.000000"
 preserveAspectRatio="xMidYMid meet">
<metadata>
Created by potrace 1.11, written by Peter Selinger 2001-2013
</metadata>
<g transform="translate(0.000000,512.000000) scale(0.100000,-0.100000)"
fill="#000000" stroke="none">
<path d="M2548 4695 c-2 -1 -55 -5 -118 -8 -112 -6 -169 -12 -220 -22 -14 -3
-38 -8 -55 -11 -202 -35 -514 -155 -693 -266 -58 -36 -231 -161 -277 -199 -88
-74 -255 -249 -313 -329 -18 -25 -47 -65 -65 -90 -141 -194 -285 -522 -332
-755 -14 -69 -25 -143 -30 -190 -3 -27 -8 -65 -11 -83 -6 -40 -6 -348 0 -378
2 -12 7 -45 11 -75 72 -600 422 -1160 936 -1502 131 -87 212 -131 357 -193
167 -71 400 -134 557 -149 39 -4 79 -9 90 -11 26 -6 333 -5 365 0 26 4 89 13
152 21 21 3 59 10 85 16 27 6 57 13 69 15 63 12 236 70 331 110 338 144 643
380 864 669 222 290 363 625 424 1010 11 67 15 466 5 525 -5 30 -11 71 -13 90
-26 194 -116 464 -217 655 -99 185 -230 365 -374 510 -339 342 -749 548 -1239
621 -18 2 -81 7 -142 10 -60 3 -118 7 -127 8 -9 2 -18 3 -20 1z m202 -439 c72
-9 111 -16 130 -21 8 -2 31 -7 50 -10 19 -3 73 -18 120 -32 47 -15 87 -27 90
-28 3 -1 16 -6 30 -12 14 -6 45 -19 70 -29 25 -10 71 -33 103 -51 33 -18 61
-33 63 -33 11 0 148 -94 214 -147 146 -116 297 -286 389 -435 178 -292 262
-602 255 -933 -3 -106 -27 -315 -39 -335 -2 -4 -7 -22 -10 -41 -21 -121 -134
-379 -231 -524 -83 -125 -46 -141 -327 141 -136 136 -247 252 -247 258 0 6
-78 87 -174 181 -318 311 -1144 1126 -1432 1414 -232 231 -282 286 -273 298
22 26 179 124 278 174 140 69 301 121 476 153 17 3 61 8 100 12 38 4 71 7 72
8 6 5 243 -2 293 -8z m-469 -1720 l1064 -1064 -3 -56 c-2 -31 -1 -67 2 -79 7
-27 43 -70 73 -85 28 -15 85 -15 117 -1 22 10 28 9 45 -12 10 -13 17 -27 14
-32 -7 -12 -142 -100 -221 -145 -141 -80 -389 -165 -542 -187 -202 -27 -396
-26 -575 6 -151 26 -372 104 -497 175 -33 19 -61 34 -63 34 -2 0 -30 18 -63
39 -541 360 -833 970 -769 1606 20 203 81 405 178 598 42 83 159 267 170 267
3 0 485 -479 1070 -1064z"/>
<path d="M2364 3860 c-68 -34 -140 -98 -179 -160 -30 -48 -65 -141 -65 -175 0
-15 144 -164 501 -516 558 -550 751 -740 798 -784 l32 -30 -1 65 c-1 36 -1 71
-1 78 1 19 72 14 109 -8 46 -28 59 -69 60 -177 0 -76 4 -99 21 -127 34 -54
106 -80 163 -57 34 14 74 53 83 81 4 13 7 102 7 196 -1 164 -2 176 -26 222
-31 61 -73 104 -128 131 -58 28 -71 29 -239 30 l-146 1 -39 66 c-22 37 -38 69
-37 71 2 4 157 174 205 225 64 66 72 98 76 277 2 90 1 178 -2 195 -19 100
-148 142 -225 73 -41 -38 -51 -77 -51 -204 0 -134 1 -132 -89 -226 -31 -32
-57 -62 -59 -67 -8 -22 -24 -7 -46 43 -51 113 -73 210 -81 360 -10 162 -47
251 -143 343 -44 42 -150 104 -179 104 -10 0 -13 -31 -13 -151 l0 -151 -34
-34 c-28 -28 -42 -34 -76 -34 -34 0 -48 6 -76 34 l-34 34 0 151 c0 120 -3 151
-13 151 -8 0 -40 -13 -73 -30z"/>
<path d="M1594 3053 c9 -18 26 -43 39 -55 64 -68 202 -221 205 -228 2 -5 -14
-38 -35 -74 l-38 -66 -147 0 c-177 0 -150 2 -199 -15 -53 -19 -116 -65 -144
-107 -40 -60 -47 -102 -48 -278 0 -155 2 -170 22 -203 38 -61 111 -82 177 -51
57 27 73 65 77 184 2 58 9 115 16 128 18 34 70 62 116 62 l40 0 -1 -85 c-1
-88 14 -191 39 -261 l15 -40 -89 -95 c-130 -139 -133 -147 -134 -359 0 -153 2
-179 18 -203 58 -88 180 -88 238 -1 16 24 19 48 19 147 0 132 6 150 67 209
l38 37 91 -87 c131 -126 267 -202 360 -202 39 0 51 5 80 34 l34 34 0 375 0
376 -59 58 c-32 32 -213 209 -401 393 -188 184 -358 351 -377 370 l-35 35 16
-32z"/>
<path d="M2670 1749 l0 -266 33 -37 c28 -34 37 -38 79 -38 47 0 82 12 173 59
48 25 132 86 147 108 5 6 -60 76 -150 163 -86 85 -185 181 -219 215 l-63 61 0
-265z"/>
</g>
</svg>
